<?xml version="1.0" encoding="UTF-8"?>
<svg width="68px" height="68px" viewBox="0 0 68 68" version="1.1" xmlns="http://www.w3.org/2000/svg" xmlns:xlink="http://www.w3.org/1999/xlink">
    <title>Group 2</title>
    <g id="Promo-Bar" stroke="none" stroke-width="1" fill="none" fill-rule="evenodd">
        <g id="Academy-3-Copy" transform="translate(-151.000000, -126.000000)" fill-rule="nonzero">
            <g id="Group-2" transform="translate(151.000000, 126.000000)">
                <polygon id="Path" fill="#F3F3F3" points="3.63934132 6.6119532 63.5606613 6.6119532 63.5606613 54.6863081 3.63934132 54.6863081"></polygon>
                <path d="M67.2000027,1.31764711 L67.2000027,8.60687093 C67.2000027,9.33421214 66.6096968,9.92451804 65.8823556,9.92451804 L1.31764711,9.92451804 C0.590305906,9.92451804 0,9.33421214 0,8.60687093 L0,1.31764711 C0,0.590305906 0.590305906,-3.37507799e-14 1.31764711,-3.37507799e-14 L65.8823556,-3.37507799e-14 C66.6096968,-3.37507799e-14 67.2000027,0.590305906 67.2000027,1.31764711 Z" id="Path" fill="#738693"></path>
                <path d="M13.0718499,34.8649426 C12.5627111,33.8995025 11.3670781,33.5295072 10.4016381,34.0386461 C9.43606626,34.5477849 9.06620271,35.7434179 9.57534156,36.7088579 L19.5425514,55.6089246 L23.0390597,53.7650092 L13.0718499,34.8649426 Z" id="Path" fill="#738693"></path>
                <path d="M65.223532,48.6752019 L65.223532,65.8296497 C65.223532,66.5573862 64.6336214,67.1472968 63.9058849,67.1472968 L38.2091309,67.1472968 C37.8453286,67.1472968 37.5503074,66.8522756 37.5503074,66.4884732 L37.5503074,55.343814 C37.5503074,57.4527082 35.8411873,59.1728965 33.7212249,59.1728965 L22.4527068,59.1728965 C20.0582784,59.1728965 18.1097419,57.233847 18.1097419,54.8299316 C18.1097419,52.4318138 20.0532714,50.4869667 22.4527068,50.4869667 L28.5837188,50.4869667 C28.9475212,50.4869667 29.2425423,50.1919455 29.2425423,49.8281432 L29.2425423,48.6752019 C29.2425423,44.6799641 32.4813189,41.4413193 36.476425,41.4413193 L57.9896494,41.4413193 C61.9847554,41.4413193 65.223532,44.6799641 65.223532,48.6752019 L65.223532,48.6752019 Z" id="Path" fill="#00B3EA"></path>
                <path d="M55.1327269,23.9176668 L55.1327269,28.9309188 C55.1327269,33.6687825 51.2905997,37.510778 46.5528677,37.510778 C41.8151358,37.510778 37.9748533,33.6686507 37.9748533,28.9309188 L37.9748533,23.9176668 C37.9748533,19.1798031 41.8151358,15.3378077 46.5528677,15.3378077 C51.2849338,15.3378077 55.1327269,19.1761137 55.1327269,23.9176668 Z" id="Path" fill="#FDE0CB"></path>
                <path d="M28.6461753,20.8308149 L9.51552038,20.8308149 C8.42398151,20.8308149 7.53904971,19.9458831 7.53904971,18.8543443 C7.53904971,17.7628054 8.42398151,16.8778736 9.51552038,16.8778736 L28.6461753,16.8778736 C29.7377141,16.8778736 30.6226459,17.7628054 30.6226459,18.8543443 C30.6226459,19.9458831 29.7377141,20.8308149 28.6461753,20.8308149 Z" id="Path" fill="#39B87F"></path>
                <path d="M28.6461753,29.5253094 L9.51552038,29.5253094 C8.42398151,29.5253094 7.53904971,28.6403776 7.53904971,27.5488387 C7.53904971,26.4572999 8.42398151,25.5723681 9.51552038,25.5723681 L28.6461753,25.5723681 C29.7377141,25.5723681 30.6226459,26.4572999 30.6226459,27.5488387 C30.6226459,28.6403776 29.7377141,29.5253094 28.6461753,29.5253094 Z" id="Path" fill="#39B87F"></path>
                <path d="M57.5346658,67.1469015 L53.5817245,67.1469015 L53.5817245,54.457301 C53.5817245,53.3657621 54.4666563,52.4808303 55.5581951,52.4808303 C56.649734,52.4808303 57.5346658,53.3657621 57.5346658,54.457301 L57.5346658,67.1469015 Z" id="Path" fill="#0094C6"></path>
            </g>
        </g>
    </g>
</svg>