<?xml version="1.0" encoding="UTF-8"?>
<svg width="68px" height="68px" viewBox="0 0 68 68" version="1.1" xmlns="http://www.w3.org/2000/svg" xmlns:xlink="http://www.w3.org/1999/xlink">
    <title>news</title>
    <g id="Promo-Bar" stroke="none" stroke-width="1" fill="none" fill-rule="evenodd">
        <g id="Academy-3-Copy" transform="translate(-474.000000, -120.000000)" fill-rule="nonzero">
            <g id="news" transform="translate(474.000000, 120.000000)">
                <g id="Group">
                    <g id="Path">
                        <g fill="#F3F3F3">
                            <polygon points="0 0 0 57.6933946 23.3545357 60.5476662 24.9094707 60.3799296 24.9094707 0"></polygon>
                            <polygon points="49.8189415 0 24.9094707 0 24.9094707 60.3799296 49.8189415 57.6933946"></polygon>
                        </g>
                        <polygon fill="#738693" points="0 57.6933946 0 67.0422535 24.9094707 67.0422535 28.990406 62.2341978 24.9094707 57.6933946"></polygon>
                        <polygon fill="#738693" points="24.9094707 57.6933946 49.8189415 57.6933946 49.8189415 67.0422535 24.9094707 67.0422535"></polygon>
                        <g transform="translate(6.939921, 29.854754)" fill="#00B3EA">
                            <polygon points="0.0793507923 15.8494696 17.96955 15.8494696 17.96955 19.78375 0.0793507923 19.78375"></polygon>
                            <polygon points="12.3516186 11.8990834 0.00707086268 11.8990834 0.00707086268 0.100039613 12.3516186 0.100039613"></polygon>
                        </g>
                        <g transform="translate(7.201805, 7.856514)" fill="#39B87F">
                            <polygon points="7.53073063 0.229672095 7.53073063 7.8440746 5.42047095 7.8440746 2.52691681 4.38498239 2.52691681 7.8440746 0.0251408451 7.8440746 0.0251408451 0.229672095 2.13540053 0.229672095 5.02882372 3.68889525 5.02882372 0.229672095"></polygon>
                            <polygon points="15.1020533 5.90783671 15.1020533 7.8440746 8.77127421 7.8440746 8.77127421 0.229672095 14.9607669 0.229672095 14.9607669 2.16590999 11.2949175 2.16590999 11.2949175 3.05788622 14.5147788 3.05788622 14.5147788 4.9071787 11.2949175 4.9071787 11.2949175 5.90783671"></polygon>
                            <path d="M28.4610079,7.23493288 L29.2876441,5.36403499 C30.0055986,5.78828675 30.9629148,6.06025308 31.8004192,6.06025308 C32.5292419,6.06025308 32.7902091,5.90796765 32.7902091,5.6468695 C32.7902091,4.6896842 28.5805579,5.46197953 28.5805579,2.62289723 C28.5805579,1.20872469 29.7663677,0.05578125 32.1267265,0.05578125 C33.1492518,0.05578125 34.2043816,0.27340669 34.9985442,0.719394806 L34.226118,2.57955546 C33.475559,2.19877641 32.7684727,2.01388644 32.1049901,2.01388644 C31.3545621,2.01388644 31.1152003,2.23151188 31.1152003,2.49247909 C31.1152003,3.40619168 35.3248515,2.64476452 35.3248515,5.4512423 C35.3248515,6.84354754 34.1391725,8.01835827 31.7786829,8.01835827 C30.5059276,8.01822733 29.2224351,7.70278829 28.4610079,7.23493288 Z"></path>
                        </g>
                    </g>
                    <g transform="translate(7.070863, 7.987456)" id="Path">
                        <polygon fill="#00B3EA" points="0.0796126761 13.9680964 0.0796126761 17.9022458 17.8386081 17.9022458 19.434397 16.1436961 17.8386081 13.9680964"></polygon>
                        <polygon fill="#00B3EA" points="17.8386081 13.9680964 35.5977344 13.9680964 35.5977344 17.9023768 17.8386081 17.9023768"></polygon>
                        <polygon fill="#00B3EA" points="17.8386081 37.7167672 35.5977344 37.7167672 35.5977344 41.6510475 17.8386081 41.6510475"></polygon>
                        <polygon fill="#39B87F" points="15.6031679 0.0987301937 17.8386081 7.08448063 18.357138 3.35433869 17.8386081 0.0987301937"></polygon>
                    </g>
                    <polygon id="Path" fill="#39B87F" points="27.8627344 15.7007196 29.157226 11.6323548 30.3863776 15.7007196 33.1383836 15.7007196 35.5750814 8.08618618 33.1383836 8.08618618 31.7352102 12.4699901 30.4079831 8.08618618 28.0476243 8.08618618 26.6444509 12.4156492 25.3173548 8.08618618 24.9094707 8.08618618 24.9094707 15.0719366 25.1105975 15.7007196"></polygon>
                </g>
                <g id="Group" transform="translate(24.748019, 23.045775)" fill="#FDE0CB">
                    <path d="M16.4288875,43.9964789 L37.8234848,43.9964789 C37.8234848,43.9964789 34.2110596,18.8561576 32.2888325,19.8291868 C30.3666054,20.8022161 22.1719993,14.3360431 23.1450286,16.2582702 L22.1799868,14.3518871 C21.2069575,12.429529 18.8598239,11.6601144 16.9375968,12.6331437 C15.0153697,13.606173 14.2458242,15.9533066 15.2188534,17.8755337 L7.41445423,2.14443552 C6.44142496,0.222077465 4.09429137,-0.547337148 2.17206426,0.425692121 C0.249837148,1.39872139 -0.519708407,3.74585497 0.453320863,5.66808209 L10.3125913,25.4585101 C7.34086488,27.2736268 12.7830722,41.557555 16.4288875,43.9964789 L16.4288875,43.9964789 Z" id="Path"></path>
                    <path d="M37.460252,43.9964789 L42.2942342,43.9964789 L42.2942342,19.2578873 L38.213037,11.4748316 C37.2400077,9.55260453 34.8928741,8.78305898 32.970647,9.75608825 C31.0484199,10.7291175 30.2788743,13.0762511 31.2519036,14.9984782 L30.106031,12.7346237 C29.1330018,10.8123966 26.7858682,10.042851 24.8636411,11.0158803 C22.941414,11.9889096 22.1718684,14.3360431 23.1448977,16.2582702 L37.460252,43.9964789 Z" id="Path"></path>
                    <path d="M19.9694256,43.9964789 L10.3124604,25.4586411 C7.34086488,27.2736268 6.21122909,31.1085222 7.81042254,34.2677575 L12.7622524,43.9964789 L19.9694256,43.9964789 Z" id="Path"></path>
                </g>
            </g>
        </g>
    </g>
</svg>